# xmcd CD database file
#
# Track frame offsets:
#	183
#	16033
#	31625
#	45385
#	65720
#	80033
#	102483
#	116158
#	133783
#	151308
#	172833
#	194958
#
# Disc length: 2633 seconds
#
# Revision: 0
# Processed by: cddbd v1.5.2PL0 Copyright (c) Steve Scherf et al.
# Submitted via: CDex 1.51
#
DISCID=9e0a470c
DTITLE=Julio Kageta - Mestizu
DYEAR=1993
DGENRE=Euskal Herriko Rock Gogorra
TTITLE0=Buprex Mezularia
TTITLE1=Iñor Al Dago?
TTITLE2=Geografia Eta Gabezia
TTITLE3=Antzekotasunaren Desberdintasuna
TTITLE4=Euskal Heriotza
TTITLE5=Hitz Jarioaren Makina
TTITLE6=Aleluia
TTITLE7=Zelako Guasa
TTITLE8=Fusion Na Forxa
TTITLE9=Europa 2.000
TTITLE10=Masturbazio
TTITLE11=Polizia
EXTD=YEAR: 1993
EXTT0=
EXTT1=
EXTT2=
EXTT3=
EXTT4=
EXTT5=
EXTT6=
EXTT7=
EXTT8=
EXTT9=
EXTT10=
EXTT11=
PLAYORDER=
